<?xml version="1.0" encoding="UTF-8"?>
<svg width="1200pt" height="1200pt" version="1.1" viewBox="0 0 1200 1200" xmlns="http://www.w3.org/2000/svg">
 <g fill="#fff">
  <path d="m912.9 708.01c7.9688 0 15.742 0.79297 23.395 1.9492v-424.61c0-29.957-24.387-54.328-54.344-54.328l-646 0.003906c-29.973 0-54.352 24.371-54.352 54.328v567.71c0 29.965 24.387 54.344 54.352 54.344h527.9c-4.1133-13.941-6.4219-28.66-6.4219-43.918 0.007812-85.734 69.75-155.48 155.47-155.48zm-637.94-4.8633v-379.15h567.3v379.14h-567.3z"/>
  <path d="m538.69 596.21-92.25-143.84-132.04 205.89h372.74l-94.129-146.78z"/>
  <path d="m714.91 373.29c-42.957 0-77.914 34.945-77.914 77.906 0 42.969 34.953 77.914 77.914 77.914 42.957 0 77.914-34.953 77.914-77.914 0.007813-42.961-34.949-77.906-77.914-77.906zm0 105.85c-15.418 0-27.941-12.535-27.941-27.941 0-15.398 12.535-27.934 27.941-27.934s27.941 12.527 27.941 27.934c0.007812 15.406-12.527 27.941-27.941 27.941z"/>
  <path d="m912.9 757.98c-58.168 0-105.49 47.332-105.49 105.5 0 58.168 47.324 105.49 105.49 105.49 58.176 0 105.5-47.324 105.5-105.49 0.003906-58.18-47.328-105.5-105.5-105.5zm49.672 122.18-33.598-30.367v89.148h-33.312v-89.148l-33.582 30.359-22.336-24.711 72.574-65.594 72.59 65.586z"/>
 </g>
</svg>
